<svg width="60" height="60" viewBox="0 0 60 60" fill="none" xmlns="http://www.w3.org/2000/svg">
<circle cx="30" cy="30" r="30" fill="#252935"/>
<path d="M30 59.5C22.6697 59.5 15.602 56.7709 10.174 51.8445C4.74604 46.9181 1.34661 40.1472 0.638115 32.8513C-0.0703776 25.5553 1.96283 18.2569 6.34156 12.3782C10.7203 6.49946 17.1309 2.46152 24.3242 1.05117C31.5175 -0.359184 38.9782 0.959089 45.2526 4.74912C51.5271 8.53915 56.1657 14.5294 58.2647 21.5527C60.3637 28.5761 59.7727 36.1293 56.6069 42.7407C53.441 49.352 47.9271 54.5479 41.1396 57.3159" stroke="#F3BF55"/>
<path d="M26.4258 30.4662L16.1258 32.6629C15.726 32.7497 15.3081 32.6756 14.9625 32.4566C14.6169 32.2376 14.3714 31.8914 14.2791 31.4929L13.3841 27.9096C13.2789 27.4778 13.3386 27.0224 13.5517 26.6324C13.7647 26.2424 14.1156 25.946 14.5358 25.8012L37.0424 18.4012" fill="#252935"/>
<path d="M32.2508 29.2229L39.4708 27.6829L32.2508 29.2229Z" fill="#252935"/>
<path d="M36.3174 44.6446L31.1424 34.2946L36.3174 44.6446Z" fill="#252935"/>
<path d="M37.1258 19.5446C36.9115 18.687 37.0466 17.7795 37.5014 17.0216C37.9561 16.2637 38.6933 15.7174 39.5508 15.5029L41.3674 15.0496C41.796 14.9427 42.2494 15.0102 42.6281 15.2374C43.0069 15.4646 43.28 15.8328 43.3874 16.2612L45.9124 26.3612C46.0198 26.79 45.9525 27.2439 45.7253 27.623C45.498 28.0021 45.1295 28.2755 44.7008 28.3829L42.8841 28.8362C42.0266 29.0505 41.1191 28.9154 40.3611 28.4606C39.6032 28.0059 39.0569 27.2687 38.8424 26.4112L37.1258 19.5446Z" fill="#252935"/>
<path d="M19.9141 24.0329L21.7708 31.4596L19.9141 24.0329Z" fill="#252935"/>
<path d="M22.9841 44.6446L28.1591 34.2946L22.9841 44.6446Z" fill="#252935"/>
<path d="M29.6508 34.6446C31.4917 34.6446 32.9841 33.1522 32.9841 31.3112C32.9841 29.4703 31.4917 27.9779 29.6508 27.9779C27.8098 27.9779 26.3174 29.4703 26.3174 31.3112C26.3174 33.1522 27.8098 34.6446 29.6508 34.6446Z" fill="#252935"/>
<path d="M26.4258 30.4662L16.1258 32.6629C15.726 32.7497 15.3081 32.6755 14.9625 32.4566C14.6169 32.2376 14.3714 31.8914 14.2791 31.4929L13.3841 27.9096C13.2789 27.4778 13.3386 27.0224 13.5517 26.6324C13.7647 26.2424 14.1156 25.946 14.5358 25.8012L37.0424 18.4012M32.2508 29.2229L39.4708 27.6829M36.3174 44.6446L31.1424 34.2946M19.9141 24.0329L21.7708 31.4596M22.9841 44.6446L28.1591 34.2946M37.1258 19.5446C36.9115 18.687 37.0466 17.7795 37.5014 17.0216C37.9561 16.2637 38.6933 15.7174 39.5508 15.5029L41.3674 15.0496C41.796 14.9427 42.2494 15.0102 42.6281 15.2374C43.0069 15.4646 43.28 15.8328 43.3874 16.2612L45.9124 26.3612C46.0198 26.79 45.9525 27.2439 45.7253 27.623C45.498 28.0021 45.1295 28.2755 44.7008 28.3829L42.8841 28.8362C42.0266 29.0505 41.1191 28.9154 40.3611 28.4606C39.6032 28.0059 39.0569 27.2687 38.8424 26.4112L37.1258 19.5446ZM32.9841 31.3112C32.9841 33.1522 31.4917 34.6446 29.6508 34.6446C27.8098 34.6446 26.3174 33.1522 26.3174 31.3112C26.3174 29.4703 27.8098 27.9779 29.6508 27.9779C31.4917 27.9779 32.9841 29.4703 32.9841 31.3112Z" stroke="#ECECED" stroke-linecap="round" stroke-linejoin="round"/>
</svg>
