<svg width="22" height="21" viewBox="0 0 22 21" fill="none" xmlns="http://www.w3.org/2000/svg">
<path d="M5 10H3C2.46957 10 1.96086 9.78929 1.58579 9.41421C1.21071 9.03914 1 8.53043 1 8V3C1 2.46957 1.21071 1.96086 1.58579 1.58579C1.96086 1.21071 2.46957 1 3 1H19C19.5304 1 20.0391 1.21071 20.4142 1.58579C20.7893 1.96086 21 2.46957 21 3V8C21 8.53043 20.7893 9.03914 20.4142 9.41421C20.0391 9.78929 19.5304 10 19 10H17M5 6H17M17.3 15.7C17.7231 16.1424 17.9692 16.7246 17.9916 17.3364C18.0141 17.9481 17.8113 18.5468 17.4217 19.019C17.0321 19.4912 16.4828 19.804 15.878 19.8982C15.2731 19.9924 14.6547 19.8614 14.14 19.53C13.8053 19.3106 13.5275 19.0148 13.3293 18.6672C13.1312 18.3195 13.0183 17.9298 13 17.53V10M5.6 13.6C5.3637 13.8317 5.18859 14.1184 5.09035 14.4344C4.99212 14.7504 4.97383 15.0858 5.03713 15.4106C5.10042 15.7355 5.24333 16.0395 5.45304 16.2955C5.66275 16.5515 5.9327 16.7514 6.2387 16.8774C6.5447 17.0034 6.87718 17.0515 7.20634 17.0174C7.5355 16.9833 7.85106 16.8681 8.12472 16.682C8.39838 16.4959 8.6216 16.2449 8.77436 15.9513C8.92712 15.6578 9.00465 15.3309 9 15V10" stroke="#6660FF" stroke-width="2" stroke-linecap="round" stroke-linejoin="round"/>
</svg>
